<mxfile host="app.diagrams.net" modified="2022-04-08T03:43:50.622Z" agent="5.0 (Windows NT 10.0; Win64; x64) AppleWebKit/537.36 (KHTML, like Gecko) Chrome/100.0.4896.75 Safari/537.36" etag="H4PQiHwIGDP_dTUy3ndm" version="17.4.0" type="github">
  <diagram id="234BdIFPs1pL9V_qX9Ja" name="Page-1">
    <mxGraphModel dx="1185" dy="662" grid="1" gridSize="10" guides="1" tooltips="1" connect="1" arrows="1" fold="1" page="1" pageScale="1" pageWidth="850" pageHeight="1100" math="0" shadow="0">
      <root>
        <mxCell id="0" />
        <mxCell id="1" parent="0" />
        <mxCell id="Stn1zoeSQ1vO5GKriBPz-39" style="edgeStyle=orthogonalEdgeStyle;rounded=0;orthogonalLoop=1;jettySize=auto;html=1;exitX=0.5;exitY=1;exitDx=0;exitDy=0;entryX=0.5;entryY=0;entryDx=0;entryDy=0;fontSize=15;" edge="1" parent="1" source="Stn1zoeSQ1vO5GKriBPz-5" target="Stn1zoeSQ1vO5GKriBPz-35">
          <mxGeometry relative="1" as="geometry" />
        </mxCell>
        <mxCell id="Stn1zoeSQ1vO5GKriBPz-5" value="" style="rounded=1;whiteSpace=wrap;html=1;fillColor=#bac8d3;strokeColor=#23445d;" vertex="1" parent="1">
          <mxGeometry x="205" y="180" width="270" height="190" as="geometry" />
        </mxCell>
        <mxCell id="Stn1zoeSQ1vO5GKriBPz-13" style="edgeStyle=orthogonalEdgeStyle;rounded=0;orthogonalLoop=1;jettySize=auto;html=1;exitX=0.5;exitY=1;exitDx=0;exitDy=0;fontSize=15;" edge="1" parent="1" source="Stn1zoeSQ1vO5GKriBPz-6" target="Stn1zoeSQ1vO5GKriBPz-5">
          <mxGeometry relative="1" as="geometry" />
        </mxCell>
        <mxCell id="Stn1zoeSQ1vO5GKriBPz-6" value="&lt;font style=&quot;font-size: 15px&quot;&gt;毫米波雷达信号&lt;/font&gt;" style="rounded=1;whiteSpace=wrap;html=1;" vertex="1" parent="1">
          <mxGeometry x="280" y="80" width="120" height="50" as="geometry" />
        </mxCell>
        <mxCell id="Stn1zoeSQ1vO5GKriBPz-9" value="ROS" style="text;html=1;align=center;verticalAlign=middle;resizable=0;points=[];autosize=1;strokeColor=none;fillColor=none;fontSize=15;" vertex="1" parent="1">
          <mxGeometry x="420" y="220" width="50" height="20" as="geometry" />
        </mxCell>
        <mxCell id="Stn1zoeSQ1vO5GKriBPz-12" value="订阅/mmWave" style="text;html=1;align=center;verticalAlign=middle;resizable=0;points=[];autosize=1;strokeColor=none;fillColor=none;fontSize=15;" vertex="1" parent="1">
          <mxGeometry x="340" y="144" width="110" height="20" as="geometry" />
        </mxCell>
        <mxCell id="Stn1zoeSQ1vO5GKriBPz-37" style="edgeStyle=orthogonalEdgeStyle;rounded=0;orthogonalLoop=1;jettySize=auto;html=1;exitX=0.5;exitY=1;exitDx=0;exitDy=0;entryX=0.5;entryY=0;entryDx=0;entryDy=0;fontSize=15;" edge="1" parent="1" source="Stn1zoeSQ1vO5GKriBPz-33" target="Stn1zoeSQ1vO5GKriBPz-34">
          <mxGeometry relative="1" as="geometry" />
        </mxCell>
        <mxCell id="Stn1zoeSQ1vO5GKriBPz-33" value="encoder" style="rounded=1;whiteSpace=wrap;html=1;fontSize=15;" vertex="1" parent="1">
          <mxGeometry x="280" y="210" width="120" height="50" as="geometry" />
        </mxCell>
        <mxCell id="Stn1zoeSQ1vO5GKriBPz-34" value="decision-making" style="rounded=1;whiteSpace=wrap;html=1;fontSize=15;" vertex="1" parent="1">
          <mxGeometry x="280" y="290" width="120" height="50" as="geometry" />
        </mxCell>
        <mxCell id="Stn1zoeSQ1vO5GKriBPz-35" value="&lt;font style=&quot;font-size: 15px&quot;&gt;UGV&lt;/font&gt;" style="rounded=1;whiteSpace=wrap;html=1;" vertex="1" parent="1">
          <mxGeometry x="280" y="420" width="120" height="50" as="geometry" />
        </mxCell>
        <mxCell id="Stn1zoeSQ1vO5GKriBPz-40" value="订阅/com/vel" style="text;html=1;align=center;verticalAlign=middle;resizable=0;points=[];autosize=1;strokeColor=none;fillColor=none;fontSize=15;" vertex="1" parent="1">
          <mxGeometry x="345" y="380" width="100" height="20" as="geometry" />
        </mxCell>
      </root>
    </mxGraphModel>
  </diagram>
</mxfile>
